<svg width="35" height="35" viewBox="0 0 35 35" fill="none" xmlns="http://www.w3.org/2000/svg">
<g clip-path="url(#clip0_1_32)">
<path d="M17.5 8.74999C19.1042 8.74999 20.4167 10.0625 20.4167 11.6667C20.4167 13.2708 19.1042 14.5833 17.5 14.5833C15.8959 14.5833 14.5834 13.2708 14.5834 11.6667C14.5834 10.0625 15.8959 8.74999 17.5 8.74999ZM17.5 23.3333C21.4375 23.3333 25.9584 25.2146 26.25 26.25H8.75004C9.08546 25.2 13.5771 23.3333 17.5 23.3333ZM17.5 5.83333C14.2771 5.83333 11.6667 8.44374 11.6667 11.6667C11.6667 14.8896 14.2771 17.5 17.5 17.5C20.723 17.5 23.3334 14.8896 23.3334 11.6667C23.3334 8.44374 20.723 5.83333 17.5 5.83333ZM17.5 20.4167C13.6063 20.4167 5.83337 22.3708 5.83337 26.25V29.1667H29.1667V26.25C29.1667 22.3708 21.3938 20.4167 17.5 20.4167Z" fill="#2C2C2C"/>
</g>
<defs>
<clipPath id="clip0_1_32">
<rect width="35" height="35" fill="white"/>
</clipPath>
</defs>
</svg>
