<svg width="35" height="35" viewBox="0 0 35 35" fill="none" xmlns="http://www.w3.org/2000/svg">
<g clip-path="url(#clip0_1_35)">
<path d="M26.25 8.75001H23.3334C23.3334 5.52709 20.723 2.91667 17.5 2.91667C14.2771 2.91667 11.6667 5.52709 11.6667 8.75001H8.75004C7.14587 8.75001 5.83337 10.0625 5.83337 11.6667V29.1667C5.83337 30.7708 7.14587 32.0833 8.75004 32.0833H26.25C27.8542 32.0833 29.1667 30.7708 29.1667 29.1667V11.6667C29.1667 10.0625 27.8542 8.75001 26.25 8.75001ZM17.5 5.83334C19.1042 5.83334 20.4167 7.14584 20.4167 8.75001H14.5834C14.5834 7.14584 15.8959 5.83334 17.5 5.83334ZM26.25 29.1667H8.75004V11.6667H11.6667V14.5833C11.6667 15.3854 12.323 16.0417 13.125 16.0417C13.9271 16.0417 14.5834 15.3854 14.5834 14.5833V11.6667H20.4167V14.5833C20.4167 15.3854 21.073 16.0417 21.875 16.0417C22.6771 16.0417 23.3334 15.3854 23.3334 14.5833V11.6667H26.25V29.1667Z" fill="#2C2C2C"/>
</g>
<defs>
<clipPath id="clip0_1_35">
<rect width="35" height="35" fill="white"/>
</clipPath>
</defs>
</svg>
